<?xml version="1.0" encoding="utf-8"?>
<!-- Generator: Adobe Illustrator 21.1.0, SVG Export Plug-In . SVG Version: 6.00 Build 0)  -->
<svg version="1.1" id="Layer_1" xmlns="http://www.w3.org/2000/svg" xmlns:xlink="http://www.w3.org/1999/xlink" x="0px" y="0px"
	 viewBox="0 0 21 15" style="enable-background:new 0 0 21 15;" xml:space="preserve">
<style type="text/css">
	.st0{fill:#FFFFFF;}
</style>
<path class="st0" d="M10.5,4.8c1.5,0,2.7,1.2,2.7,2.7s-1.2,2.7-2.7,2.7S7.8,9,7.8,7.5S9,4.8,10.5,4.8 M10.5,0.7
	c4.5,0,8.4,2.8,10,6.8c-1.6,4-5.5,6.8-10,6.8s-8.4-2.8-10-6.8C2.1,3.5,6,0.7,10.5,0.7 M2.5,7.5c1.5,3.1,4.6,5,8,5s6.5-1.9,8-5
	c-1.5-3.1-4.6-5-8-5S4,4.4,2.5,7.5z"/>
</svg>
