<?xml version="1.0" encoding="utf-8"?>
<!-- Generator: Adobe Illustrator 21.1.0, SVG Export Plug-In . SVG Version: 6.00 Build 0)  -->
<svg version="1.1" id="Isolation_Mode" xmlns="http://www.w3.org/2000/svg" xmlns:xlink="http://www.w3.org/1999/xlink" x="0px"
	 y="0px" viewBox="0 0 85 15" style="enable-background:new 0 0 85 15;" xml:space="preserve">
<style type="text/css">
	.st0{fill:#FFFFFF;}
	.st1{clip-path:url(#SVGID_2_);fill:#FFFFFF;}
</style>
<g>
	<path class="st0" d="M7.5,4v2.4c0,0.5-0.4,0.9-0.9,0.9H3.1c-0.5,0-0.9-0.4-0.9-0.9V4H0.5v3.5V11h1.7V8.6c0-0.5,0.4-0.9,0.9-0.9h3.5
		c0.5,0,0.9,0.4,0.9,0.9V11h1.7V7.5V4H7.5z"/>
	<path class="st0" d="M43.9,4h-2.4l-4,7c0.5,0,1.1-0.4,1.4-0.9l0.2-0.3c0.2-0.2,0.4-0.3,0.6-0.3l0,0h4.5c0.2,0,0.4,0.2,0.6,0.3
		l0.2,0.3c0.3,0.5,0.9,0.9,1.4,0.9h1.6L43.9,4z M43.9,9L43.9,9h-4.5l2.5-4.3L44,8.6C44.2,8.8,44.1,9,43.9,9"/>
	<path class="st0" d="M69.6,4h-2.4l-4,7c0.5,0,1.1-0.4,1.4-0.9l0.2-0.3c0.2-0.2,0.4-0.3,0.6-0.3v0h4.5c0.2,0,0.4,0.2,0.6,0.3
		l0.2,0.3c0.3,0.5,0.9,0.9,1.4,0.9h1.6L69.6,4z M69.5,9L69.5,9H65l2.5-4.3l2.2,3.9C69.9,8.8,69.8,9,69.5,9"/>
	<path class="st0" d="M58.7,8.1L58.7,8.1c-0.1-0.4-0.5-0.8-1-0.8v0c0.3-0.1,0.5-0.4,0.5-0.4c0.3-0.8,0.3-1.7,0-2.5
		c0,0-0.2-0.4-0.6-0.4h-7.4v3.5v2.6c0,0.5,0.4,0.9,0.9,0.9h6.5c0.6,0,1.1-0.4,1.2-0.8C58.9,9.5,58.9,8.8,58.7,8.1 M56.7,9.7
		c0,0.5-0.4,0.9-0.9,0.9h-3.9v-2c0-0.5,0.4-0.9,0.9-0.9h3c0.5,0,0.9,0.4,0.9,0.9V9.7z M56.3,6.4c0,0.5-0.4,0.9-0.9,0.9h-2.7
		c-0.5,0-0.9-0.4-0.9-0.9v-2h4c0.2,0,0.4,0.2,0.4,0.4V6.4z"/>
	<path class="st0" d="M61.9,11c0,0.5-0.4,0.9-0.9,0.9c-0.5,0-0.9-0.4-0.9-0.9c0-0.5,0.4-0.9,0.9-0.9C61.5,10.1,61.9,10.5,61.9,11"/>
	<path class="st0" d="M78.4,10.6c-0.2,0-0.3-0.1-0.3-0.3c0-0.1,0-0.2,0.1-0.2l5.5-4.5h0c0.3-0.3,0.4-0.4,0.5-0.6
		c0-0.1,0.1-0.2,0.1-0.3c0-0.3-0.3-0.6-0.6-0.6c0,0-7.8,0-7.8,0c0,0.2,0.2,0.4,0.4,0.4l5.6,0v0c0.1,0,0.1,0.1,0.1,0.1
		c0,0,0,0.1,0,0.1l-5.9,4.8l0,0c-0.2,0.2-0.3,0.4-0.3,0.6c0,0.5,0.4,0.8,0.8,0.8c0,0,0,0,0.1,0h7.4c0.2,0,0.4-0.2,0.4-0.4L78.4,10.6
		z"/>
	<g>
		<defs>
			<path id="SVGID_1_" d="M11.5,7.5c-0.7,3.8,1.7,6.9,5.3,6.9c2.7,0,5.4-1.8,6.8-4.3c0,0-2,0.3-2.6,0.7c-0.1,0-0.2,0.2-0.2,0.2
				c-1.2,1.6-3,2.6-4.7,2.6c-2.9,0-4.7-2.7-4.1-6.1c0.6-3.4,3.4-6.1,6.3-6.1c1.7,0,3,1,3.7,2.4c0.1,0.2-0.1,0.3-0.1,0.3l-5.4,3
				c0,0-0.2,0.1-0.2-0.2v0c0,0,0.4-2.9,0.5-3.8c0-0.1,0-0.1,0-0.1c0,0-0.1-0.1-0.1-0.2c0,0,0,0,0,0c-0.2,1.2-0.8,4.7-0.8,4.7
				s0,0.1,0.1,0c0.7-0.3,7-3.1,8.2-3.5c0.2-0.1,0.2-0.3,0.2-0.4c-0.8-1.9-2.6-3.2-4.9-3.2C15.6,0.6,12.2,3.7,11.5,7.5"/>
		</defs>
		<use xlink:href="#SVGID_1_"  style="overflow:visible;fill:#FFFFFF;"/>
		<clipPath id="SVGID_2_">
			<use xlink:href="#SVGID_1_"  style="overflow:visible;"/>
		</clipPath>
		<polygon class="st1" points="10.8,0.6 26.7,0.6 24.2,14.4 8.4,14.4 		"/>
	</g>
	<path class="st0" d="M34.2,7.8L34.2,7.8l-5.4-2c-0.3-0.1-0.4-0.3-0.4-0.6c0-0.4,0.3-0.7,0.6-0.7v0h0c0,0,0,0,0,0c0,0,5.8,0,5.8,0
		c0.2,0,0.4-0.2,0.4-0.4h-7c-0.9,0-1.7,0.7-1.7,1.7c0,0.7,0.4,1.3,1,1.5l5,1.8v0c0.3,0.1,0.5,0.4,0.5,0.7c0,0.4-0.3,0.8-0.8,0.8v0
		h-5.6c0.2,0.3,0.4,0.4,0.8,0.4l0,0h6.2c0.9,0,1.7-0.7,1.7-1.7C35.3,8.6,34.9,8,34.2,7.8z"/>
</g>
</svg>
