<?xml version="1.0" encoding="utf-8"?>
<!-- Generator: Adobe Illustrator 21.1.0, SVG Export Plug-In . SVG Version: 6.00 Build 0)  -->
<svg version="1.1" id="Layer_1" xmlns="http://www.w3.org/2000/svg" xmlns:xlink="http://www.w3.org/1999/xlink" x="0px" y="0px"
	 viewBox="0 0 49 49" style="enable-background:new 0 0 49 49;" xml:space="preserve">
<style type="text/css">
	.st0{fill:#ED1B31;stroke:#ED1E32;stroke-width:0.5;stroke-miterlimit:10;}
	.st1{fill:#010101;stroke:#010202;stroke-width:0.5;stroke-miterlimit:10;}
</style>
<g>
	<path class="st0" d="M24.5,39c1.9,0,3.8-0.4,5.5-1.1c3.6-1.5,6.4-4.3,7.9-7.9c1.5-3.6,1.5-7.5,0-11.1c-2.3-5.4-7.5-9-13.4-9
		c-1.9,0-3.8,0.4-5.5,1.1c-7.4,3.1-10.9,11.6-7.9,19C13.3,35.5,18.6,39,24.5,39L24.5,39z M19.7,12.9c1.5-0.6,3.2-1,4.8-1
		c5.1,0,9.7,3,11.6,7.8c1.3,3.1,1.3,6.5,0,9.6c-1.3,3.1-3.7,5.5-6.8,6.8c-1.5,0.6-3.2,1-4.8,1c-5.1,0-9.7-3-11.6-7.8
		C10.2,22.9,13.3,15.5,19.7,12.9L19.7,12.9z M19.7,12.9"/>
	<path class="st1" d="M1.9,32.6c0.1,0.4,0.5,0.6,0.9,0.6c0.1,0,0.2,0,0.3-0.1C3.6,33,3.9,32.5,3.7,32c-2.9-8-1-16.8,5-22.9
		c4.1-4.2,9.6-6.6,15.5-6.6c5.9-0.1,11.5,2.2,15.7,6.3l-2.5,0c-0.5,0-1,0.4-1,1c0,0.5,0.4,1,1,1h0l4.8-0.1c0.3,0,0.5-0.1,0.7-0.3
		c0.2-0.2,0.3-0.4,0.3-0.7l-0.1-4.8c0-0.5-0.4-1-1-1c-0.5,0-1,0.4-1,1l0,2.5c-4.6-4.5-10.6-6.9-17-6.8C17.8,0.6,11.8,3.1,7.3,7.7
		C4.1,11,1.9,15.1,1,19.6C0.1,23.9,0.4,28.4,1.9,32.6L1.9,32.6z M1.9,32.6"/>
	<path class="st1" d="M40.3,39.9c-8.5,8.7-22.5,8.9-31.2,0.4l2.5,0c0.5,0,1-0.4,1-1c0-0.5-0.4-1-1-1h0l-4.8,0.1c-0.5,0-1,0.4-1,1
		l0.1,4.8c0,0.5,0.4,1,1,1h0c0.5,0,1-0.4,1-1l0-2.5c4.7,4.5,10.7,6.8,16.8,6.8c6.2,0,12.5-2.4,17.2-7.2c3.2-3.3,5.4-7.4,6.3-11.9
		c0.9-4.3,0.6-8.9-0.9-13c-0.2-0.5-0.7-0.8-1.2-0.6c-0.5,0.2-0.8,0.7-0.6,1.2C48.1,25.1,46.2,33.8,40.3,39.9L40.3,39.9z M40.3,39.9"
		/>
</g>
</svg>
