<?xml version="1.0" encoding="utf-8"?>
<!-- Generator: Adobe Illustrator 21.1.0, SVG Export Plug-In . SVG Version: 6.00 Build 0)  -->
<svg version="1.1" id="Layer_1" xmlns="http://www.w3.org/2000/svg" xmlns:xlink="http://www.w3.org/1999/xlink" x="0px" y="0px"
	 viewBox="0 0 108 45" style="enable-background:new 0 0 108 45;" xml:space="preserve">
<g>
	<path d="M0.5,0.4h6.9v9.5c1.3-1.6,3.1-3.1,5.9-3.1c4.2,0,6.7,2.7,6.7,7.2v12.9h-6.9V16.2c0-2.2-1.1-3.3-2.8-3.3s-2.9,1.2-2.9,3.3
		v10.7H0.5V0.4z"/>
	<path d="M22.8,17.1L22.8,17.1c0-5.8,4.1-10.3,9.9-10.3c6.8,0,9.9,5,9.9,10.7c0,0.4,0,0.9,0,1.4H29.4c0.5,2.2,2.1,3.2,4.2,3.2
		c1.7,0,2.9-0.6,4.4-2l3.8,3.2c-1.9,2.4-4.6,4-8.5,4C27.1,27.3,22.8,23.2,22.8,17.1z M36.1,15.4c-0.3-2.2-1.6-3.6-3.4-3.6
		c-1.9,0-3,1.4-3.4,3.6H36.1z"/>
	<path d="M44.1,24.4l2.6-4.1c2.3,1.5,4.7,2.3,6.7,2.3c1.2,0,1.8-0.4,1.8-1.1v-0.1c0-0.8-1.1-1.1-3.2-1.7c-3.9-1-7-2.3-7-6.2v-0.1
		c0-4.2,3.4-6.5,7.9-6.5c2.9,0,5.8,0.8,8.1,2.3l-2.4,4.4c-2-1.2-4.2-1.9-5.8-1.9c-1.1,0-1.6,0.4-1.6,1v0.1c0,0.8,1.2,1.1,3.2,1.7
		c3.9,1.1,7,2.4,7,6.2v0.1c0,4.3-3.2,6.6-8,6.6C50,27.3,46.8,26.4,44.1,24.4z"/>
	<path d="M63.2,21.2L63.2,21.2c0-4.2,3.1-6.2,7.7-6.2c1.9,0,3.6,0.3,4.7,0.8v-0.3c0-2.1-1.3-3.2-3.9-3.2c-2.1,0-3.7,0.4-5.4,1.1
		l-1.4-4.8c2.2-0.9,4.6-1.5,8-1.5c3.5,0,5.9,0.8,7.5,2.4c1.5,1.5,2.1,3.5,2.1,6.2v11.2h-6.8v-2.1c-1.4,1.5-3.2,2.5-5.8,2.5
		C66.1,27.3,63.2,25.1,63.2,21.2z M75.7,19.7v-0.9C75,18.6,74,18.3,73,18.3c-2,0-3.2,0.9-3.2,2.4v0.1c0,1.3,1,2.1,2.4,2.1
		C74.3,23,75.7,21.7,75.7,19.7z"/>
	<path d="M92.8,24.5v2.4h-6.9V0.4h6.9v9.5c1.3-1.6,3-3,6-3c4.6,0,8.7,3.9,8.7,10.2v0.1c0,6.4-4,10.3-8.7,10.3
		C95.8,27.3,94.1,26,92.8,24.5z M100.7,17.1L100.7,17.1c0-2.7-1.9-4.5-4-4.5c-2.3,0-4,1.9-4,4.5v0.1c0,2.6,1.8,4.5,4,4.5
		C98.9,21.5,100.7,19.7,100.7,17.1z"/>
	<g>
		<path d="M55.3,44.5v-0.7c0.2,0,0.5,0,0.6,0c0.6,0,1-0.4,1-1.1v-9h0.8v9c0,1.3-0.7,1.9-1.8,1.9C55.7,44.5,55.5,44.5,55.3,44.5z
			 M56.8,30.4h1v1.1h-1V30.4z"/>
		<path d="M60.2,37.8L60.2,37.8c0-2.3,1.8-4.3,4.2-4.3s4.2,2,4.2,4.3l0,0c0,2.3-1.8,4.3-4.2,4.3C62,42,60.2,40,60.2,37.8z
			 M67.8,37.8L67.8,37.8c0-2-1.5-3.6-3.4-3.6c-2,0-3.4,1.6-3.4,3.5l0,0c0,2,1.5,3.6,3.4,3.6C66.4,41.4,67.8,39.8,67.8,37.8z"/>
		<path d="M71,38.7v-5h0.8v4.9c0,1.7,0.9,2.8,2.6,2.8c1.6,0,2.9-1.2,2.9-2.9v-4.8H78v8.2h-0.8v-1.5c-0.6,1-1.5,1.7-3,1.7
			C72.2,42,71,40.7,71,38.7z"/>
		<path d="M81,33.7h0.8V36c0.7-1.5,2-2.5,3.6-2.5v0.9h-0.1c-1.9,0-3.6,1.5-3.6,4.1v3.4H81V33.7z"/>
		<path d="M87.5,33.7h0.8v1.5c0.6-1,1.5-1.7,3-1.7c2.1,0,3.3,1.4,3.3,3.4v5h-0.8V37c0-1.7-0.9-2.8-2.6-2.8c-1.6,0-2.9,1.2-2.9,2.9
			v4.8h-0.8V33.7z"/>
		<path d="M96.7,39.5L96.7,39.5c0-1.8,1.5-2.7,3.6-2.7c1.2,0,1.9,0.1,2.7,0.4v-0.4c0-1.7-1-2.5-2.7-2.5c-1,0-1.8,0.3-2.6,0.7
			l-0.3-0.7c0.9-0.4,1.8-0.7,2.9-0.7s2,0.3,2.6,0.9c0.6,0.6,0.8,1.3,0.8,2.3v5.1H103v-1.4c-0.6,0.8-1.6,1.6-3.1,1.6
			C98.3,42,96.7,41.2,96.7,39.5z M103,38.8v-0.9c-0.7-0.2-1.6-0.4-2.8-0.4c-1.7,0-2.7,0.8-2.7,1.9l0,0c0,1.2,1.1,1.9,2.4,1.9
			C101.6,41.4,103,40.3,103,38.8z"/>
		<path d="M106.7,30h0.8v11.8h-0.8V30z"/>
	</g>
</g>
</svg>
