<?xml version="1.0" encoding="utf-8"?>
<!-- Generator: Adobe Illustrator 21.1.0, SVG Export Plug-In . SVG Version: 6.00 Build 0)  -->
<svg version="1.1" id="Layer_1" xmlns="http://www.w3.org/2000/svg" xmlns:xlink="http://www.w3.org/1999/xlink" x="0px" y="0px"
	 viewBox="0 0 23 18" style="enable-background:new 0 0 23 18;" xml:space="preserve">
<g>
	<g>
		<path d="M21.8,2.1H1.2c-0.4,0-0.7-0.3-0.7-0.7s0.3-0.7,0.7-0.7h20.6c0.4,0,0.7,0.3,0.7,0.7S22.2,2.1,21.8,2.1z"/>
	</g>
	<g>
		<path d="M16.3,9.7H1.2C0.8,9.7,0.5,9.4,0.5,9c0-0.4,0.3-0.7,0.7-0.7h15.1C16.7,8.3,17,8.6,17,9C17,9.4,16.7,9.7,16.3,9.7z"/>
	</g>
	<g>
		<path d="M19,17.3H1.2c-0.4,0-0.7-0.3-0.7-0.7s0.3-0.7,0.7-0.7H19c0.4,0,0.7,0.3,0.7,0.7S19.4,17.3,19,17.3z"/>
	</g>
</g>
</svg>
