<?xml version="1.0" encoding="utf-8"?>
<!-- Generator: Adobe Illustrator 21.1.0, SVG Export Plug-In . SVG Version: 6.00 Build 0)  -->
<svg version="1.1" id="Layer_1" xmlns="http://www.w3.org/2000/svg" xmlns:xlink="http://www.w3.org/1999/xlink" x="0px" y="0px"
	 viewBox="0 0 20 20" style="enable-background:new 0 0 20 20;" xml:space="preserve">
<path d="M19.3,18.5l-5.4-5.5c1.3-1.4,2-3.2,2-5.2c0-4.2-3.4-7.7-7.7-7.7S0.5,3.7,0.5,7.9s3.4,7.7,7.7,7.7c1.7,0,3.3-0.6,4.5-1.5
	l5.5,5.5c0.1,0.1,0.3,0.2,0.5,0.2s0.4-0.1,0.5-0.2C19.6,19.3,19.6,18.8,19.3,18.5z M2,7.9c0-3.4,2.8-6.2,6.2-6.2s6.2,2.8,6.2,6.2
	c0,3.4-2.8,6.2-6.2,6.2S2,11.3,2,7.9z"/>
</svg>
