<?xml version="1.0" encoding="utf-8"?>
<!-- Generator: Adobe Illustrator 21.1.0, SVG Export Plug-In . SVG Version: 6.00 Build 0)  -->
<svg version="1.1" id="Layer_1" xmlns="http://www.w3.org/2000/svg" xmlns:xlink="http://www.w3.org/1999/xlink" x="0px" y="0px"
	 viewBox="0 0 39 46" style="enable-background:new 0 0 39 46;" xml:space="preserve">
<style type="text/css">
	.st0{fill:#F1002D;}
</style>
<g>
	<path class="st0" d="M37.7,8.4c-6.1-1.7-12.3-4.3-17.8-7.6c-0.3-0.2-0.7-0.2-1,0C13.3,4.2,7.5,6.7,1.2,8.4C0.8,8.5,0.5,8.9,0.5,9.3
		v9.6C0.5,28.7,5,35.2,8.9,39c4.1,4,8.9,6.2,10.6,6.2c1.7,0,6.5-2.2,10.6-6.2c3.8-3.7,8.4-10.3,8.4-20.1V9.3
		C38.4,8.9,38.2,8.5,37.7,8.4L37.7,8.4z M36.6,18.9c0,9.2-4.2,15.3-7.8,18.8c-4,4-8.3,5.7-9.3,5.7c-1,0-5.3-1.8-9.3-5.7
		c-3.6-3.5-7.8-9.6-7.8-18.8V10c6-1.7,11.6-4.1,17.1-7.3c5.3,3.1,11.2,5.6,17.1,7.3V18.9z M36.6,18.9"/>
	<path class="st0" d="M11.2,9.9C11,9.4,10.4,9.2,10,9.4c-1.7,0.7-3.4,1.3-5.1,1.8c-0.4,0.1-0.7,0.5-0.7,0.9v3.6
		c0,0.5,0.4,0.9,0.9,0.9c0.5,0,0.9-0.4,0.9-0.9v-2.9c1.5-0.5,3.1-1,4.6-1.6C11.1,10.9,11.4,10.4,11.2,9.9L11.2,9.9z M11.2,9.9"/>
	<path class="st0" d="M13,10.1c0.1,0,0.3,0,0.4-0.1l0,0c0.5-0.2,0.7-0.8,0.5-1.2c-0.2-0.5-0.8-0.7-1.2-0.5l0,0
		c-0.5,0.2-0.7,0.8-0.5,1.2C12.2,9.9,12.6,10.1,13,10.1L13,10.1z M13,10.1"/>
	<path class="st0" d="M30.6,30.9c-0.4-0.3-1-0.2-1.3,0.3c-0.8,1.2-1.7,2.3-2.7,3.4c-0.8,0.9-1.7,1.7-2.7,2.4
		c-0.4,0.3-0.5,0.9-0.2,1.3c0.2,0.2,0.5,0.4,0.7,0.4c0.2,0,0.4-0.1,0.6-0.2c1-0.8,2-1.6,2.9-2.6c1.1-1.1,2.1-2.4,2.9-3.6
		C31.2,31.8,31,31.2,30.6,30.9L30.6,30.9z M30.6,30.9"/>
	<path class="st0" d="M21.8,38.4L21.8,38.4c-0.5,0.3-0.7,0.9-0.4,1.3c0.2,0.3,0.5,0.5,0.8,0.5c0.2,0,0.3,0,0.5-0.1l0.1,0
		c0.4-0.3,0.6-0.8,0.3-1.3C22.8,38.3,22.2,38.1,21.8,38.4L21.8,38.4z M21.8,38.4"/>
	<path class="st0" d="M13.1,21.1c-0.6-0.6-1.3-0.9-2.2-0.9c-0.8,0-1.6,0.3-2.2,0.9c-1.2,1.2-1.2,3.1,0,4.3l5.5,5.5
		c0.6,0.6,1.3,0.9,2.2,0.9c0.8,0,1.6-0.3,2.2-0.9l11.5-11.5c1.2-1.2,1.2-3.1,0-4.3c-0.6-0.6-1.3-0.9-2.2-0.9c-0.8,0-1.6,0.3-2.2,0.9
		l-9.4,9.4L13.1,21.1z M27.2,16.4c0.2-0.2,0.5-0.3,0.8-0.3c0.3,0,0.6,0.1,0.8,0.3c0.5,0.5,0.5,1.2,0,1.7L17.3,29.6
		c-0.2,0.2-0.5,0.3-0.8,0.3c-0.3,0-0.6-0.1-0.8-0.3L10.1,24c-0.5-0.5-0.5-1.2,0-1.7c0.2-0.2,0.5-0.3,0.8-0.3c0.3,0,0.6,0.1,0.8,0.3
		l4,4c0.2,0.2,0.4,0.3,0.7,0.3s0.5-0.1,0.7-0.3L27.2,16.4z M27.2,16.4"/>
</g>
</svg>
