<?xml version="1.0" encoding="utf-8"?>
<!-- Generator: Adobe Illustrator 21.1.0, SVG Export Plug-In . SVG Version: 6.00 Build 0)  -->
<svg version="1.1" id="Layer_1" xmlns="http://www.w3.org/2000/svg" xmlns:xlink="http://www.w3.org/1999/xlink" x="0px" y="0px"
	 viewBox="0 0 40 40" style="enable-background:new 0 0 40 40;" xml:space="preserve">
<style type="text/css">
	.st0{fill:#F1002D;}
</style>
<path class="st0" d="M8.1,39c-0.1,0-0.3,0-0.4-0.1c-0.2-0.2-0.3-0.4-0.3-0.7l2.2-12.8l-9.3-9.1C0.1,16,0,15.7,0.1,15.5
	C0.2,15.2,0.4,15,0.7,15l12.9-1.9l5.8-11.7C19.5,1.2,19.7,1,20,1c0.3,0,0.5,0.2,0.6,0.4l5.8,11.7L39.3,15c0.3,0,0.5,0.2,0.6,0.5
	c0.1,0.3,0,0.5-0.2,0.7l-9.3,9.1l2.2,12.8c0,0.3-0.1,0.5-0.3,0.7c-0.2,0.2-0.5,0.2-0.8,0.1L20,32.8L8.5,38.9C8.4,38.9,8.2,39,8.1,39
	L8.1,39z M2.3,16.2l8.6,8.4c0.2,0.2,0.2,0.4,0.2,0.6L9.1,37l10.6-5.6c0.2-0.1,0.5-0.1,0.7,0L30.9,37l-2-11.8c0-0.2,0-0.5,0.2-0.6
	l8.6-8.4l-11.8-1.7c-0.2,0-0.4-0.2-0.5-0.4L20,3.3l-5.3,10.7c-0.1,0.2-0.3,0.4-0.5,0.4L2.3,16.2z M2.3,16.2"/>
</svg>
