<?xml version="1.0" encoding="utf-8"?>
<!-- Generator: Adobe Illustrator 21.1.0, SVG Export Plug-In . SVG Version: 6.00 Build 0)  -->
<svg version="1.1" id="Layer_1" xmlns="http://www.w3.org/2000/svg" xmlns:xlink="http://www.w3.org/1999/xlink" x="0px" y="0px"
	 viewBox="0 0 41 41" style="enable-background:new 0 0 41 41;" xml:space="preserve">
<style type="text/css">
	.st0{fill:#F1002D;}
</style>
<path class="st0" d="M5.5,4c-0.3-0.3-0.3-0.8,0-1.1c0.3-0.3,0.8-0.3,1.1,0l0.6,0.6l0.6-0.6c0.3-0.3,0.8-0.3,1.1,0
	c0.3,0.3,0.3,0.8,0,1.1L8.3,4.6l0.6,0.6c0.3,0.3,0.3,0.8,0,1.1C8.7,6.5,8.5,6.5,8.3,6.5c-0.2,0-0.4-0.1-0.5-0.2L7.2,5.7L6.6,6.3
	c-0.3,0.3-0.8,0.3-1.1,0C5.2,6,5.2,5.5,5.5,5.2l0.6-0.6L5.5,4z M10.4,8.9c0.2,0.2,0.3,0.2,0.5,0.2c0.2,0,0.4-0.1,0.5-0.2
	c0.3-0.3,0.3-0.8,0-1.1l-0.4-0.4c-0.3-0.3-0.8-0.3-1.1,0c-0.3,0.3-0.3,0.8,0,1.1L10.4,8.9z M3.4,9.2c0.2,0,0.4-0.1,0.5-0.2l0.4-0.4
	c0.3-0.3,0.3-0.8,0-1.1C4,7.2,3.5,7.2,3.2,7.5L2.8,7.9c-0.3,0.3-0.3,0.8,0,1.1C3,9.1,3.2,9.2,3.4,9.2L3.4,9.2z M18.8,8.5
	c0.2,0,0.4-0.1,0.5-0.2l0.5-0.5c0.3-0.3,0.3-0.8,0-1.1c-0.3-0.3-0.8-0.3-1.1,0l-0.5,0.5c-0.3,0.3-0.3,0.8,0,1.1
	C18.5,8.4,18.6,8.5,18.8,8.5L18.8,8.5z M13.5,12l-1.1,1.1c-0.3,0.3-0.3,0.8,0,1.1c0.3,0.3,0.8,0.3,1.1,0l1.1-1.1l1.1,1.1
	c0.2,0.2,0.3,0.2,0.5,0.2c0.2,0,0.4-0.1,0.5-0.2c0.3-0.3,0.3-0.8,0-1.1L15.7,12l1.1-1.1c0.3-0.3,0.3-0.8,0-1.1
	c-0.3-0.3-0.8-0.3-1.1,0l-1.1,1.1l-1.1-1.1c-0.3-0.3-0.8-0.3-1.1,0c-0.3,0.3-0.3,0.8,0,1.1L13.5,12z M10.6,2c0.2,0,0.4-0.1,0.5-0.2
	l0.4-0.4c0.3-0.3,0.3-0.8,0-1.1c-0.3-0.3-0.8-0.3-1.1,0L10,0.7C9.7,1,9.7,1.5,10,1.8C10.2,1.9,10.4,2,10.6,2L10.6,2z M15.1,20.3
	l-6.6,1.2l0.2,1.1c0.1,0.4-0.2,0.8-0.6,0.9c0,0-0.1,0-0.1,0c-0.4,0-0.7-0.3-0.8-0.6l-0.8-4.6c-0.1-0.4,0.2-0.8,0.6-0.9l7.4-1.3
	c0.3-0.1,0.6,0.1,0.8,0.3c0.2,0.3,0.2,0.6,0,0.8l-0.7,1l1,0.7c0.2,0.2,0.4,0.5,0.3,0.8C15.6,20,15.4,20.2,15.1,20.3L15.1,20.3z
	 M13.1,19.1L13,19c-0.3-0.2-0.4-0.7-0.2-1l0.1-0.1L8,18.7l0.2,1.2L13.1,19.1z M3.2,1.8C3.4,1.9,3.6,2,3.8,2C4,2,4.2,1.9,4.3,1.8
	c0.3-0.3,0.3-0.8,0-1.1L3.9,0.3C3.6,0,3.1,0,2.8,0.3c-0.3,0.3-0.3,0.8,0,1.1L3.2,1.8z M28.6,33.4c-0.4-0.1-0.8,0.2-0.9,0.6
	c0,0,0,0.1,0,0.1c0,0.4,0.3,0.7,0.6,0.8l4.6,0.8c0,0,0.1,0,0.1,0c0.4,0,0.7-0.3,0.8-0.6c0,0,0-0.1,0-0.1c0-0.4-0.3-0.7-0.6-0.8
	L28.6,33.4z M34.6,30.5c0,0,0-0.1,0-0.1c0-0.4-0.3-0.7-0.6-0.8l-4.6-0.8c-0.4-0.1-0.8,0.2-0.9,0.6c0,0,0,0.1,0,0.1
	c0,0.4,0.3,0.7,0.6,0.8l4.6,0.8c0,0,0.1,0,0.1,0C34.2,31.1,34.6,30.9,34.6,30.5L34.6,30.5z M29.6,24.2l1.9-2.7
	c0.1-0.2,0.2-0.4,0.1-0.6L30,11.6c0-0.2-0.1-0.4-0.3-0.5l-2.7-1.9c-0.2-0.1-0.4-0.2-0.6-0.1l-7.7,1.4c-0.4,0.1-0.7,0.5-0.6,0.9
	c0.1,0.4,0.5,0.7,0.9,0.6l7.4-1.3l2.2,1.5l1.5,8.6l-1.5,2.2l-22.6,4l-2.2-1.5l-1.5-8.6l1.5-2.2l6.8-1.2c0.4-0.1,0.7-0.5,0.6-0.9
	c-0.1-0.4-0.5-0.7-0.9-0.6l-7.1,1.3c-0.2,0-0.4,0.2-0.5,0.3l-1.9,2.7c-0.1,0.2-0.2,0.4-0.1,0.6l1.6,9.3c0,0.2,0.1,0.4,0.3,0.5
	l2.7,1.9c0.1,0.1,0.3,0.1,0.4,0.1c0,0,0.1,0,0.1,0l23.2-4.1C29.3,24.5,29.5,24.4,29.6,24.2L29.6,24.2z M40.2,28.5l-1.9-2.7
	c-0.1-0.2-0.3-0.3-0.5-0.3l-5.4-0.9c-0.4-0.1-0.8,0.2-0.9,0.6c-0.1,0.4,0.2,0.8,0.6,0.9l5,0.9l1.5,2.2l-1.5,8.6l-2.2,1.5l-22.6-4
	L11,33.2l0.5-2.7c0.1-0.4-0.2-0.8-0.6-0.9c-0.4-0.1-0.8,0.2-0.9,0.6l-0.5,3c0,0.2,0,0.4,0.1,0.6l1.9,2.7c0.1,0.2,0.3,0.3,0.5,0.3
	l23.2,4.1c0,0,0.1,0,0.1,0c0.2,0,0.3,0,0.4-0.1l2.7-1.9c0.2-0.1,0.3-0.3,0.3-0.5l1.6-9.3C40.4,28.9,40.4,28.7,40.2,28.5L40.2,28.5z
	 M24.8,28.4c-0.1-0.3-0.3-0.5-0.6-0.6l-2.7-0.5c-0.4-0.1-0.8,0.2-0.9,0.6c-0.1,0.4,0.2,0.8,0.6,0.9l1,0.2L22,29.2
	c-0.3,0.2-0.4,0.7-0.2,1l0.1,0.1l-4.8-0.9c0,0,0.1-0.6,0.1-0.6c0-0.4-0.3-0.7-0.6-0.8c-0.4-0.1-0.8,0.2-0.9,0.6l-0.6,3.1
	c0,0,0,0.1,0,0.1c0,0.4,0.3,0.7,0.6,0.8c0,0,0.1,0,0.1,0c0.4,0,0.7-0.3,0.8-0.6l0.2-1.1l6.6,1.2c0.3,0.1,0.6-0.1,0.8-0.3
	c0.2-0.3,0.2-0.6,0-0.8l-0.7-1l1-0.7C24.7,29.1,24.9,28.7,24.8,28.4L24.8,28.4z M34.2,32.8c0,0,0-0.1,0-0.1c0-0.4-0.3-0.7-0.6-0.8
	L29,31.1c-0.4-0.1-0.8,0.2-0.9,0.6c0,0,0,0.1,0,0.1c0,0.4,0.3,0.7,0.6,0.8l4.6,0.8c0,0,0.1,0,0.1,0C33.8,33.4,34.2,33.2,34.2,32.8
	L34.2,32.8z M25,18.9l-4.6,0.8c-0.4,0.1-0.7,0.5-0.6,0.9c0.1,0.4,0.4,0.6,0.8,0.6c0,0,0.1,0,0.1,0l4.6-0.8c0.4-0.1,0.7-0.5,0.6-0.9
	C25.8,19.1,25.4,18.8,25,18.9L25,18.9z M24.6,16.6L20,17.4c-0.4,0.1-0.7,0.5-0.6,0.9c0.1,0.4,0.4,0.6,0.8,0.6c0,0,0.1,0,0.1,0
	l4.6-0.8c0.4-0.1,0.7-0.5,0.6-0.9C25.4,16.8,25,16.5,24.6,16.6L24.6,16.6z M24.2,14.3l-4.6,0.8c-0.4,0.1-0.7,0.5-0.6,0.9
	c0.1,0.4,0.4,0.6,0.8,0.6c0,0,0.1,0,0.1,0l4.6-0.8c0.4-0.1,0.7-0.5,0.6-0.9C25,14.5,24.6,14.2,24.2,14.3L24.2,14.3z M24.2,14.3"/>
</svg>
