<?xml version="1.0" encoding="utf-8"?>
<!-- Generator: Adobe Illustrator 21.1.0, SVG Export Plug-In . SVG Version: 6.00 Build 0)  -->
<svg version="1.1" id="Layer_1" xmlns="http://www.w3.org/2000/svg" xmlns:xlink="http://www.w3.org/1999/xlink" x="0px" y="0px"
	 viewBox="0 0 28 22" style="enable-background:new 0 0 28 22;" xml:space="preserve">
<style type="text/css">
	.st0{fill:#F1002D;}
	.st1{fill:#FFFFFF;}
</style>
<rect class="st0" width="28" height="22"/>
<path class="st1" d="M21.7,13.9l-7.1-7.1c-0.2-0.2-0.4-0.3-0.7-0.3c-0.2,0-0.5,0.1-0.7,0.3l-7.1,7.1c-0.3,0.3-0.3,0.9,0,1.2
	c0.2,0.2,0.4,0.3,0.6,0.3s0.4-0.1,0.6-0.3L14,8.6l6.5,6.5c0.2,0.2,0.4,0.3,0.6,0.3c0.2,0,0.4-0.1,0.6-0.3
	C22.1,14.8,22.1,14.3,21.7,13.9z"/>
</svg>
